<?xml version="1.0" encoding="UTF-8" standalone="no"?><!-- Generator: Gravit.io --><svg xmlns="http://www.w3.org/2000/svg" xmlns:xlink="http://www.w3.org/1999/xlink" style="isolation:isolate" viewBox="0 0 512 512" width="512pt" height="512pt"><defs><clipPath id="_clipPath_CEJp8TXJgoPSxAgVfwbSN755IPrv5BDj"><rect width="512" height="512"/></clipPath></defs><g clip-path="url(#_clipPath_CEJp8TXJgoPSxAgVfwbSN755IPrv5BDj)"><g><g><path d=" M 356.159 366.262 C 353.988 360.837 348.699 357.312 342.732 357.312 L 154.756 357.312 L 154.756 169.2 C 154.756 161.198 148.246 154.688 140.378 154.688 C 136.582 154.688 132.784 156.18 130.072 158.892 L 43.272 245.692 C 40.559 248.405 39.068 252.067 39.068 256 L 39.068 458.488 C 39.068 466.49 45.578 473 53.578 473 L 256.068 473 C 259.864 473 263.526 471.508 266.374 468.796 L 353.174 381.996 C 357.107 377.792 358.328 371.553 356.159 366.262 Z " fill="rgb(190,190,190)"/><path d=" M 458.556 39 L 82.332 39 C 74.329 39 67.819 45.51 67.819 53.376 C 67.819 57.174 69.312 60.972 72.023 63.684 L 158.823 150.484 C 161.537 153.195 165.199 154.688 169.132 154.688 L 357.244 154.688 L 357.244 342.8 C 357.244 346.598 358.736 350.26 361.448 353.108 L 448.248 439.908 C 453.944 445.605 463.031 445.605 468.728 439.908 C 471.439 437.195 472.932 433.533 472.932 429.6 L 472.932 53.512 C 472.932 45.51 466.558 39 458.556 39 Z " fill="rgb(190,190,190)"/></g></g></g></svg>