<?xml version="1.0" encoding="UTF-8" standalone="no"?><!-- Generator: Gravit.io --><svg xmlns="http://www.w3.org/2000/svg" xmlns:xlink="http://www.w3.org/1999/xlink" style="isolation:isolate" viewBox="0 0 512 512" width="512pt" height="512pt"><defs><clipPath id="_clipPath_Knnt0KPe6D0iWrf2uBs0pigl7Y5JhE9T"><rect width="512" height="512"/></clipPath></defs><g clip-path="url(#_clipPath_Knnt0KPe6D0iWrf2uBs0pigl7Y5JhE9T)"><path d=" M 82.834 235.981 C 82.834 235.981 122.195 177.937 200.772 171.914 L 200.772 150.867 C 113.747 157.856 38.397 231.562 38.397 231.562 C 38.397 231.562 81.087 354.884 200.772 366.251 L 200.772 343.785 C 112.925 332.81 82.834 235.981 82.834 235.981 Z  M 200.772 299.327 L 200.772 319.881 C 134.363 308.001 115.946 238.961 115.946 238.961 C 138.792 216.105 168.677 201.621 200.772 197.853 L 200.772 220.462 L 200.772 220.462 C 172.983 217.133 151.278 243.072 151.278 243.072 C 151.278 243.072 163.446 286.769 200.875 299.348 M 200.875 112.021 L 200.875 150.867 C 203.423 150.662 205.972 150.497 208.541 150.415 C 307.487 147.085 371.944 231.562 371.944 231.562 C 371.944 231.562 297.95 321.587 220.771 321.587 C 214.099 321.589 207.442 320.997 200.875 319.82 L 200.875 343.785 C 206.369 344.494 211.902 344.85 217.441 344.854 C 289.215 344.854 341.134 308.207 391.409 264.818 C 399.63 271.498 433.852 287.735 440.861 294.826 C 392.971 334.906 281.59 367.155 218.489 367.155 C 212.323 367.155 206.548 366.806 200.813 366.251 L 200.813 400 L 473.603 400 L 473.603 112 L 200.875 112.021 Z  M 200.875 197.956 L 200.875 171.935 C 203.403 171.75 205.951 171.606 208.541 171.524 C 279.699 169.304 326.376 232.671 326.376 232.671 C 326.376 232.671 275.855 302.678 221.798 302.678 C 214.648 302.719 207.536 301.588 200.751 299.327 L 200.751 220.462 C 228.458 223.813 234.028 236.042 250.677 263.81 L 287.673 232.569 C 287.673 232.569 260.645 197.113 215.077 197.113 C 210.27 197.138 205.466 197.42 200.69 197.956" fill="rgb(190,190,190)"/></g></svg>