<?xml version="1.0" encoding="UTF-8" standalone="no"?><!-- Generator: Gravit.io --><svg xmlns="http://www.w3.org/2000/svg" xmlns:xlink="http://www.w3.org/1999/xlink" style="isolation:isolate" viewBox="33.321 25.164 61.35 102.836" width="61.35pt" height="102.836pt"><g><g><g><g><g><path d=" M 75.347 104.38 L 52.639 104.38 C 50.881 104.38 49.455 105.806 49.455 107.564 C 49.455 109.323 50.881 110.749 52.639 110.749 L 75.347 110.749 C 77.105 110.749 78.533 109.323 78.533 107.564 C 78.533 105.806 77.105 104.38 75.347 104.38 Z " fill="rgb(77,77,77)"/><path d=" M 58.146 122.941 C 58.578 125.799 61.02 128 64.001 128 C 66.979 128 69.427 125.8 69.857 122.941 C 73.755 122.71 76.853 119.507 76.853 115.551 L 51.134 115.551 C 51.134 119.509 54.241 122.715 58.146 122.941 Z " fill="rgb(77,77,77)"/><path d=" M 94.671 55.84 C 94.671 38.898 80.938 25.164 63.998 25.164 C 47.054 25.164 33.321 38.898 33.321 55.84 C 33.321 62.987 35.779 69.549 39.885 74.759 C 43.484 79.325 46.892 84.309 49.845 89.325 L 49.845 99.514 L 77.976 99.514 L 77.976 89.595 C 80.902 84.717 84.685 79.1 88.103 74.764 C 92.213 69.553 94.671 62.992 94.671 55.84 Z " fill="rgb(77,77,77)"/></g></g></g></g></g></svg>