<?xml version="1.0" encoding="UTF-8" standalone="no"?><!-- Generator: Gravit.io --><svg xmlns="http://www.w3.org/2000/svg" xmlns:xlink="http://www.w3.org/1999/xlink" style="isolation:isolate" viewBox="10.831 0 106.338 128" width="106.338pt" height="128pt"><g><g><g><g><g><path d=" M 75.347 104.38 L 52.639 104.38 C 50.881 104.38 49.455 105.806 49.455 107.564 C 49.455 109.323 50.881 110.749 52.639 110.749 L 75.347 110.749 C 77.105 110.749 78.533 109.323 78.533 107.564 C 78.533 105.806 77.105 104.38 75.347 104.38 Z " fill="rgb(221,221,221)"/><path d=" M 58.146 122.941 C 58.578 125.799 61.02 128 64.001 128 C 66.979 128 69.427 125.8 69.857 122.941 C 73.755 122.71 76.853 119.507 76.853 115.551 L 51.134 115.551 C 51.134 119.509 54.241 122.715 58.146 122.941 Z " fill="rgb(221,221,221)"/><path d=" M 64.001 18.372 C 66.35 18.372 68.249 16.47 68.249 14.125 L 68.249 4.247 C 68.249 1.901 66.35 0 64.001 0 C 61.654 0 59.755 1.901 59.755 4.247 L 59.755 14.125 C 59.756 16.47 61.654 18.372 64.001 18.372 Z " fill="rgb(221,221,221)"/><path d=" M 36.135 24.559 C 36.969 25.704 38.263 26.311 39.578 26.311 C 40.44 26.311 41.315 26.048 42.069 25.5 C 43.965 24.123 44.388 21.468 43.011 19.571 L 37.205 11.576 C 35.824 9.681 33.174 9.253 31.272 10.635 C 29.377 12.011 28.954 14.667 30.331 16.564 L 36.135 24.559 Z " fill="rgb(221,221,221)"/><path d=" M 91.861 86.807 C 90.483 84.912 87.83 84.491 85.929 85.869 C 84.035 87.247 83.612 89.903 84.993 91.8 L 90.803 99.795 C 91.631 100.937 92.925 101.545 94.241 101.545 C 95.107 101.545 95.978 101.282 96.732 100.735 C 98.627 99.356 99.05 96.7 97.67 94.802 L 91.861 86.807 Z " fill="rgb(221,221,221)"/><path d=" M 25.794 38.803 L 16.397 35.747 C 14.145 35.021 11.77 36.242 11.044 38.473 C 10.317 40.702 11.538 43.099 13.768 43.825 L 23.166 46.881 C 23.605 47.022 24.044 47.091 24.479 47.091 C 26.27 47.091 27.933 45.95 28.518 44.154 C 29.245 41.926 28.025 39.529 25.794 38.803 Z " fill="rgb(221,221,221)"/><path d=" M 114.231 67.54 L 104.836 64.488 C 102.604 63.768 100.211 64.986 99.486 67.215 C 98.759 69.445 99.983 71.841 102.213 72.567 L 111.611 75.618 C 112.047 75.76 112.485 75.828 112.921 75.828 C 114.712 75.828 116.375 74.685 116.96 72.892 C 117.685 70.66 116.463 68.266 114.231 67.54 Z " fill="rgb(221,221,221)"/><path d=" M 23.169 64.488 L 13.768 67.536 C 11.538 68.259 10.314 70.654 11.041 72.886 C 11.621 74.681 13.287 75.824 15.078 75.824 C 15.51 75.824 15.954 75.754 16.39 75.613 L 25.789 72.566 C 28.021 71.842 29.245 69.447 28.519 67.217 C 27.797 64.987 25.42 63.768 23.169 64.488 Z " fill="rgb(221,221,221)"/><path d=" M 103.525 47.091 C 103.961 47.091 104.4 47.022 104.836 46.881 L 114.231 43.829 C 116.463 43.103 117.685 40.708 116.96 38.478 C 116.233 36.248 113.829 35.03 111.611 35.751 L 102.213 38.803 C 99.983 39.528 98.759 41.924 99.486 44.154 C 100.07 45.948 101.734 47.091 103.525 47.091 Z " fill="rgb(221,221,221)"/><path d=" M 36.14 86.806 L 30.325 94.796 C 28.945 96.693 29.365 99.349 31.264 100.728 C 32.014 101.277 32.889 101.542 33.755 101.542 C 35.07 101.542 36.364 100.936 37.193 99.793 L 43.008 91.803 C 44.388 89.906 43.969 87.25 42.07 85.871 C 40.179 84.484 37.512 84.909 36.14 86.806 Z " fill="rgb(221,221,221)"/><path d=" M 90.799 11.576 L 84.993 19.571 C 83.616 21.468 84.039 24.123 85.935 25.5 C 86.689 26.048 87.564 26.311 88.426 26.311 C 89.741 26.311 91.035 25.704 91.867 24.559 L 97.673 16.564 C 99.05 14.666 98.627 12.01 96.731 10.634 C 94.824 9.249 92.18 9.676 90.799 11.576 Z " fill="rgb(221,221,221)"/><path d=" M 94.671 55.84 C 94.671 38.898 80.938 25.164 63.998 25.164 C 47.054 25.164 33.321 38.898 33.321 55.84 C 33.321 62.987 35.779 69.549 39.885 74.759 C 43.484 79.325 46.892 84.309 49.845 89.325 L 49.845 99.514 L 77.976 99.514 L 77.976 89.595 C 80.902 84.717 84.685 79.1 88.103 74.764 C 92.213 69.553 94.671 62.992 94.671 55.84 Z " fill="rgb(221,221,221)"/></g></g></g></g></g></svg>