<?xml version="1.0" encoding="UTF-8" standalone="no"?><!-- Generator: Gravit.io --><svg xmlns="http://www.w3.org/2000/svg" xmlns:xlink="http://www.w3.org/1999/xlink" style="isolation:isolate" viewBox="640 27 512 450" width="512pt" height="450pt"><g><path d=" M 791 387 L 1121 387 L 1121 477 L 791 477 L 791 387 Z " fill="rgb(255,159,64)"/><g><path d=" M 821 387 L 851 387 L 851 447 L 821 447 L 821 387 Z " fill="rgb(255,190,64)"/><path d=" M 881 387 L 911 387 L 911 447 L 881 447 L 881 387 Z " fill="rgb(255,190,64)"/><path d=" M 941 387 L 971 387 L 971 447 L 941 447 L 941 387 Z " fill="rgb(255,190,64)"/><path d=" M 1001 387 L 1031 387 L 1031 447 L 1001 447 L 1001 387 Z " fill="rgb(255,190,64)"/><path d=" M 1061 387 L 1091 387 L 1091 447 L 1061 447 L 1061 387 Z " fill="rgb(255,190,64)"/></g><path d=" M 715 87 L 933.5 87 L 933.5 417 L 715 417 L 715 87 Z " fill="rgb(0,113,197)"/><path d=" M 933.5 87 L 1152 87 L 1152 417 L 933.5 417 L 933.5 87 Z " fill="rgb(118,185,0)"/><path d=" M 715 252 L 933.5 252 L 933.5 417 L 715 417 L 715 252 Z " fill="rgb(0,94,166)"/><path d=" M 933.5 252.229 L 1152 252.229 L 1152 417.229 L 933.5 417.229 L 933.5 252.229 Z " fill="rgb(97,153,0)"/><path d=" M 640 117 L 715 117 L 715 237 L 640 237 L 640 117 Z " fill="rgb(255,190,64)"/><path d=" M 640 267 L 715 267 L 715 387 L 640 387 L 640 267 Z " fill="rgb(255,159,64)"/><path d=" M 670 147 L 715 147 L 715 207 L 670 207 L 670 147 Z " fill="rgb(255,223,64)"/><path d=" M 670 297 L 715 297 L 715 357 L 670 357 L 670 297 Z " fill="rgb(255,190,64)"/><path d=" M 761 147 L 791 147 L 791 177 L 761 177 L 761 147 Z " fill="rgb(53,61,77)"/><path d=" M 821 147 L 851 147 L 851 177 L 821 177 L 821 147 Z " fill="rgb(53,61,77)"/><path d=" M 761 207 L 791 207 L 791 237 L 761 237 L 761 207 Z " fill="rgb(53,61,77)"/><path d=" M 821 207 L 851 207 L 851 237 L 821 237 L 821 207 Z " fill="rgb(53,61,77)"/><path d=" M 761 267 L 791 267 L 791 297 L 761 297 L 761 267 Z " fill="rgb(30,37,51)"/><path d=" M 821 267 L 851 267 L 851 297 L 821 297 L 821 267 Z " fill="rgb(30,37,51)"/><path d=" M 761 327 L 791 327 L 791 357 L 761 357 L 761 327 Z " fill="rgb(30,37,51)"/><path d=" M 821 327 L 851 327 L 851 357 L 821 357 L 821 327 Z " fill="rgb(30,37,51)"/><circle vector-effect="non-scaling-stroke" cx="986" cy="251.9999999999999" r="105.00000000000006" fill="rgb(81,88,102)"/><path d=" M 986 357 C 1043.891 357 1091 309.891 1091 252 L 881 252 C 881 309.891 928.109 357 986 357 Z " fill="rgb(53,61,77)"/><path d=" M 1056.098 226.058 C 1046.802 223.839 1035.202 223.185 1021.79 225.023 C 1013.949 214.65 1001.81 207.815 987.981 207.2 C 986.912 192.89 990.345 183.175 993.291 177.738 C 1022.255 180.587 1046.311 199.718 1056.098 226.058 Z " fill="rgb(53,61,77)"/><path d=" M 960.017 181.913 C 957.796 191.213 957.148 202.813 959.006 216.223 C 948.64 224.065 941.812 236.202 941.199 250.026 C 926.875 251.106 917.166 247.673 911.735 244.721 C 914.582 215.765 933.696 191.711 960.017 181.913 L 960.017 181.913 Z " fill="rgb(53,61,77)"/><path d=" M 915.865 277.829 C 928.736 280.934 938.802 280.806 950.369 279.171 C 958.217 289.43 970.28 296.189 984.02 296.8 C 985.095 311.166 981.641 320.891 978.736 326.265 C 949.719 323.42 925.628 304.231 915.865 277.829 L 915.865 277.829 Z " fill="rgb(30,37,51)"/><path d=" M 1011.983 322.087 C 1014.204 312.787 1014.852 301.187 1012.994 287.777 C 1023.356 279.938 1030.182 267.802 1030.799 253.987 C 1045.125 252.916 1054.833 256.334 1060.264 259.279 C 1057.42 288.235 1038.304 312.289 1011.983 322.087 L 1011.983 322.087 Z " fill="rgb(30,37,51)"/><path d=" M 730 27 L 730 477 L 700 477 L 700 57 L 640 57 L 640 27 L 730 27 Z " fill="rgb(243,245,249)"/><path d=" M 700 252 L 730 252 L 730 477 L 700 477 L 700 252 Z " fill="rgb(225,230,240)"/></g></svg>