<?xml version="1.0" encoding="UTF-8" standalone="no"?><!-- Generator: Gravit.io --><svg xmlns="http://www.w3.org/2000/svg" xmlns:xlink="http://www.w3.org/1999/xlink" style="isolation:isolate" viewBox="329 1137 512 450" width="512pt" height="450pt"><g><path d=" M 480 1497 L 810 1497 L 810 1587 L 480 1587 L 480 1497 Z " fill="rgb(255,159,64)"/><g><path d=" M 510 1497 L 540 1497 L 540 1557 L 510 1557 L 510 1497 Z " fill="rgb(255,190,64)"/><path d=" M 570 1497 L 600 1497 L 600 1557 L 570 1557 L 570 1497 Z " fill="rgb(255,190,64)"/><path d=" M 630 1497 L 660 1497 L 660 1557 L 630 1557 L 630 1497 Z " fill="rgb(255,190,64)"/><path d=" M 690 1497 L 720 1497 L 720 1557 L 690 1557 L 690 1497 Z " fill="rgb(255,190,64)"/><path d=" M 750 1497 L 780 1497 L 780 1557 L 750 1557 L 750 1497 Z " fill="rgb(255,190,64)"/></g><path d=" M 404 1197 L 841 1197 L 841 1527 L 404 1527 L 404 1197 Z " fill="rgb(118,185,0)"/><path d=" M 404 1362 L 841 1362 L 841 1527 L 404 1527 L 404 1362 Z " fill="rgb(97,153,0)"/><path d=" M 329 1227 L 404 1227 L 404 1347 L 329 1347 L 329 1227 Z " fill="rgb(255,190,64)"/><path d=" M 329 1377 L 404 1377 L 404 1497 L 329 1497 L 329 1377 Z " fill="rgb(255,159,64)"/><path d=" M 359 1257 L 404 1257 L 404 1317 L 359 1317 L 359 1257 Z " fill="rgb(255,223,64)"/><path d=" M 359 1407 L 404 1407 L 404 1467 L 359 1467 L 359 1407 Z " fill="rgb(255,190,64)"/><path d=" M 450 1257 L 480 1257 L 480 1287 L 450 1287 L 450 1257 Z " fill="rgb(53,61,77)"/><path d=" M 510 1257 L 540 1257 L 540 1287 L 510 1287 L 510 1257 Z " fill="rgb(53,61,77)"/><path d=" M 450 1317 L 480 1317 L 480 1347 L 450 1347 L 450 1317 Z " fill="rgb(53,61,77)"/><path d=" M 510 1317 L 540 1317 L 540 1347 L 510 1347 L 510 1317 Z " fill="rgb(53,61,77)"/><path d=" M 450 1377 L 480 1377 L 480 1407 L 450 1407 L 450 1377 Z " fill="rgb(30,37,51)"/><path d=" M 510 1377 L 540 1377 L 540 1407 L 510 1407 L 510 1377 Z " fill="rgb(30,37,51)"/><path d=" M 450 1437 L 480 1437 L 480 1467 L 450 1467 L 450 1437 Z " fill="rgb(30,37,51)"/><path d=" M 510 1437 L 540 1437 L 540 1467 L 510 1467 L 510 1437 Z " fill="rgb(30,37,51)"/><circle vector-effect="non-scaling-stroke" cx="674.9999999999998" cy="1362" r="105" fill="rgb(81,88,102)"/><path d=" M 675 1467 C 732.891 1467 780 1419.891 780 1362 L 570 1362 C 570 1419.891 617.109 1467 675 1467 Z " fill="rgb(53,61,77)"/><path d=" M 745.098 1336.058 C 735.802 1333.839 724.202 1333.185 710.79 1335.023 C 702.949 1324.65 690.81 1317.815 676.981 1317.2 C 675.912 1302.89 679.345 1293.175 682.291 1287.738 C 711.255 1290.587 735.311 1309.718 745.098 1336.058 Z " fill="rgb(53,61,77)"/><path d=" M 649.017 1291.913 C 646.796 1301.213 646.148 1312.813 648.006 1326.223 C 637.64 1334.065 630.812 1346.202 630.199 1360.026 C 615.875 1361.106 606.166 1357.673 600.735 1354.721 C 603.582 1325.765 622.696 1301.711 649.017 1291.913 L 649.017 1291.913 Z " fill="rgb(53,61,77)"/><path d=" M 604.865 1387.829 C 617.736 1390.934 627.802 1390.806 639.369 1389.171 C 647.217 1399.43 659.28 1406.189 673.02 1406.8 C 674.095 1421.166 670.641 1430.891 667.736 1436.265 C 638.719 1433.42 614.628 1414.231 604.865 1387.829 L 604.865 1387.829 Z " fill="rgb(30,37,51)"/><path d=" M 700.983 1432.087 C 703.204 1422.787 703.852 1411.187 701.994 1397.777 C 712.356 1389.938 719.182 1377.802 719.799 1363.987 C 734.125 1362.916 743.833 1366.334 749.264 1369.279 C 746.42 1398.235 727.304 1422.289 700.983 1432.087 L 700.983 1432.087 Z " fill="rgb(30,37,51)"/><path d=" M 419 1137 L 419 1587 L 389 1587 L 389 1167 L 329 1167 L 329 1137 L 419 1137 Z " fill="rgb(243,245,249)"/><path d=" M 389 1362 L 419 1362 L 419 1587 L 389 1587 L 389 1362 Z " fill="rgb(225,230,240)"/></g></svg>