<?xml version="1.0" encoding="UTF-8" standalone="no"?><!-- Generator: Gravit.io --><svg xmlns="http://www.w3.org/2000/svg" xmlns:xlink="http://www.w3.org/1999/xlink" style="isolation:isolate" viewBox="0 0 128 128" width="128pt" height="128pt"><defs><clipPath id="_clipPath_QACPCUXQ7c8gNvnOUEomVFHciM16K7YX"><rect width="128" height="128"/></clipPath></defs><g clip-path="url(#_clipPath_QACPCUXQ7c8gNvnOUEomVFHciM16K7YX)"><path d=" M 76.887 35.924 C 76.687 35.983 76.635 36.073 76.437 36.242 C 76.277 36.379 76.143 36.476 75.988 36.609 C 75.633 36.914 75.425 37.103 75.113 37.365 C 73.566 38.667 71.467 40.694 69.951 42.114 C 67.598 44.317 65.478 46.439 63.221 48.63 C 58.964 52.762 54.14 57.723 49.88 61.707 C 46.359 64.999 43.339 67.955 39.66 71.247 C 38.254 72.504 37.368 73.65 35.453 73.716 C 32.294 73.825 28.126 71.136 25.995 69.913 C 24.132 68.844 19.185 65.935 16.801 65.855 L 18.548 68.255 C 19.797 70.161 21.898 74.313 22.906 76.333 C 26.372 83.275 31.051 90.543 37.006 95.378 C 38.529 96.614 39.909 97.653 41.843 98.824 C 42.691 99.337 43.557 99.764 44.506 100.301 C 44.834 100.487 47.115 101.552 47.397 101.552 C 46.772 100.926 46.129 100.161 45.622 99.564 C 43.355 96.898 38.311 91.714 36.796 89.068 C 35.524 86.847 35.232 85.486 36.646 83.256 C 38.261 80.707 42.029 77.553 44.393 75.532 C 50.145 70.612 55.333 66.156 61.351 61.485 C 64.203 59.272 67.168 57.014 70.234 54.826 C 73.243 52.679 76.267 50.611 79.407 48.535 L 84.149 45.518 C 84.589 45.265 88.909 42.694 88.978 42.608 L 93.204 40.276 C 94.624 39.474 96.002 38.805 97.505 37.995 C 101.916 35.62 110.676 31.749 115.695 29.978 C 117.343 29.397 118.913 28.848 120.58 28.278 L 125.575 26.713 C 125.17 26.506 119.651 26.448 118.635 26.448 C 114.542 26.448 112.032 26.562 108.125 26.87 C 105.135 27.107 99.571 27.72 96.852 28.378 C 96.363 28.496 95.783 28.547 95.29 28.677 C 94.347 28.925 93.268 29.096 92.303 29.336 C 90.312 29.832 88.504 30.393 86.633 30.951 C 84.707 31.525 82.966 32.206 81.243 32.915 C 80.225 33.334 77.148 35.39 76.887 35.925 L 76.887 35.924 Z  M 116.858 45.809 L 120.49 43.955 C 121.75 43.355 123.053 42.665 124.24 42.085 C 126.648 40.909 128.034 37.096 127.999 34.652 C 127.574 34.67 125.844 35.49 125.375 35.662 C 125.052 35.78 124.754 35.882 124.452 36.01 C 122.307 36.922 119.443 38 117.41 38.959 C 116.819 39.238 116.249 39.468 115.651 39.725 C 115.182 39.926 114.148 40.332 113.955 40.571 C 113.31 40.538 100.168 47.051 98.53 47.898 C 96.197 49.104 93.264 50.549 91.023 51.796 C 90.757 51.944 83.923 55.561 83.651 55.909 C 83.201 55.984 78.517 58.766 77.769 59.188 C 68.5 64.418 58.234 70.998 49.355 77.02 C 46.888 78.693 43.736 80.889 41.256 82.757 L 39.266 84.243 C 39.037 84.418 38.767 84.533 38.635 84.795 C 39.52 85.557 45.384 87.973 46.783 88.478 C 54.635 91.307 61.984 93.279 70.245 94.697 L 75.487 95.499 L 79.617 95.863 L 76.253 95.566 C 76.895 95.639 77.532 95.743 78.157 95.803 C 79.08 95.891 79.997 95.967 80.948 96.062 C 82.74 96.242 84.82 96.364 86.662 96.397 C 88.952 96.437 90.213 96.554 92.091 95.761 C 93.546 95.147 94.73 94.382 95.887 93.496 C 100.196 90.194 104.029 85.03 107.087 80.356 C 110.287 75.465 113.17 70 115.654 64.586 C 116.92 61.829 118.107 58.952 119.225 56.021 C 119.792 54.535 120.283 53.1 120.795 51.524 C 121.078 50.652 122.11 47.466 122.188 46.754 C 121.013 46.914 100.463 58.002 98.507 59.052 C 95.855 60.475 93.316 61.958 90.743 63.356 C 88.243 64.714 85.598 66.319 83.11 67.702 C 78.055 70.511 72.964 73.641 67.916 76.564 C 67.051 77.065 60.623 80.822 60.392 81.087 C 60.824 81.017 81.203 72.265 81.697 72.061 C 82.658 71.664 102.667 63.077 102.996 63.063 C 102.881 63.526 101.642 65.838 101.329 66.518 C 100.808 67.65 100.18 68.939 99.611 70.065 C 96.384 76.448 92.882 84.113 85.837 86.942 L 85.414 87.196 C 85.037 87.205 84.005 87.624 83.55 87.749 C 82.866 87.937 82.204 88.067 81.514 88.209 C 78.267 88.874 73.358 88.527 69.974 87.998 C 66.115 87.394 63.413 86.716 59.673 85.812 C 58.78 85.596 52.327 83.784 51.954 83.537 C 52.164 83.171 55.855 80.806 56.178 80.582 C 63.319 75.618 75.181 68.324 82.895 63.935 C 83.712 63.47 84.471 63.048 85.217 62.62 C 85.838 62.265 86.974 61.672 87.475 61.308 L 91.084 59.328 C 92.305 58.651 93.426 58.064 94.711 57.33 C 97.141 55.944 99.604 54.781 101.996 53.434 C 102.348 53.236 116.007 46.058 116.858 45.81 L 116.858 45.809 Z  M 24 83.277 C 23.858 82.975 21.392 80.358 20.902 79.811 C 17.791 76.338 14.775 73.102 11.649 69.453 C 9.471 66.911 7.531 64.569 5.679 62.323 C 4.905 61.383 0.654 56.047 0.005 54.959 C -0.078 55.168 0.992 59.542 1.15 60.117 C 1.392 60.999 1.58 61.802 1.827 62.702 C 4.242 71.496 6.656 74.824 14.974 79.075 C 15.999 79.598 23.447 83.201 24 83.277 Z " fill-rule="evenodd" fill="rgb(221,0,49)"/></g></svg>