<?xml version="1.0" encoding="UTF-8" standalone="no"?><!-- Generator: Gravit.io --><svg xmlns="http://www.w3.org/2000/svg" xmlns:xlink="http://www.w3.org/1999/xlink" style="isolation:isolate" viewBox="45 27 512 450" width="512pt" height="450pt"><g><path d=" M 196 387 L 526 387 L 526 477 L 196 477 L 196 387 Z " fill="rgb(255,159,64)"/><g><path d=" M 226 387 L 256 387 L 256 447 L 226 447 L 226 387 Z " fill="rgb(255,190,64)"/><path d=" M 286 387 L 316 387 L 316 447 L 286 447 L 286 387 Z " fill="rgb(255,190,64)"/><path d=" M 346 387 L 376 387 L 376 447 L 346 447 L 346 387 Z " fill="rgb(255,190,64)"/><path d=" M 406 387 L 436 387 L 436 447 L 406 447 L 406 387 Z " fill="rgb(255,190,64)"/><path d=" M 466 387 L 496 387 L 496 447 L 466 447 L 466 387 Z " fill="rgb(255,190,64)"/></g><path d=" M 120 87 L 557 87 L 557 417 L 120 417 L 120 87 Z " fill="rgb(0,113,197)"/><path d=" M 120 252 L 557 252 L 557 417 L 120 417 L 120 252 Z " fill="rgb(0,94,166)"/><path d=" M 45 117 L 120 117 L 120 237 L 45 237 L 45 117 Z " fill="rgb(255,190,64)"/><path d=" M 45 267 L 120 267 L 120 387 L 45 387 L 45 267 Z " fill="rgb(255,159,64)"/><path d=" M 75 147 L 120 147 L 120 207 L 75 207 L 75 147 Z " fill="rgb(255,223,64)"/><path d=" M 75 297 L 120 297 L 120 357 L 75 357 L 75 297 Z " fill="rgb(255,190,64)"/><path d=" M 166 147 L 196 147 L 196 177 L 166 177 L 166 147 Z " fill="rgb(53,61,77)"/><path d=" M 226 147 L 256 147 L 256 177 L 226 177 L 226 147 Z " fill="rgb(53,61,77)"/><path d=" M 166 207 L 196 207 L 196 237 L 166 237 L 166 207 Z " fill="rgb(53,61,77)"/><path d=" M 226 207 L 256 207 L 256 237 L 226 237 L 226 207 Z " fill="rgb(53,61,77)"/><path d=" M 166 267 L 196 267 L 196 297 L 166 297 L 166 267 Z " fill="rgb(30,37,51)"/><path d=" M 226 267 L 256 267 L 256 297 L 226 297 L 226 267 Z " fill="rgb(30,37,51)"/><path d=" M 166 327 L 196 327 L 196 357 L 166 357 L 166 327 Z " fill="rgb(30,37,51)"/><path d=" M 226 327 L 256 327 L 256 357 L 226 357 L 226 327 Z " fill="rgb(30,37,51)"/><circle vector-effect="non-scaling-stroke" cx="390.9999999999999" cy="251.9999999999999" r="105" fill="rgb(81,88,102)"/><path d=" M 391 357 C 448.891 357 496 309.891 496 252 L 286 252 C 286 309.891 333.109 357 391 357 Z " fill="rgb(53,61,77)"/><path d=" M 461.098 226.058 C 451.802 223.839 440.202 223.185 426.79 225.023 C 418.949 214.65 406.81 207.815 392.981 207.2 C 391.912 192.89 395.345 183.175 398.291 177.738 C 427.255 180.587 451.311 199.718 461.098 226.058 Z " fill="rgb(53,61,77)"/><path d=" M 365.017 181.913 C 362.796 191.213 362.148 202.813 364.006 216.223 C 353.64 224.065 346.812 236.202 346.199 250.026 C 331.875 251.106 322.166 247.673 316.735 244.721 C 319.582 215.765 338.696 191.711 365.017 181.913 L 365.017 181.913 Z " fill="rgb(53,61,77)"/><path d=" M 320.865 277.829 C 333.736 280.934 343.802 280.806 355.369 279.171 C 363.217 289.43 375.28 296.189 389.02 296.8 C 390.095 311.166 386.641 320.891 383.736 326.265 C 354.719 323.42 330.628 304.231 320.865 277.829 L 320.865 277.829 Z " fill="rgb(30,37,51)"/><path d=" M 416.983 322.087 C 419.204 312.787 419.852 301.187 417.994 287.777 C 428.356 279.938 435.182 267.802 435.799 253.987 C 450.125 252.916 459.833 256.334 465.264 259.279 C 462.42 288.235 443.304 312.289 416.983 322.087 L 416.983 322.087 Z " fill="rgb(30,37,51)"/><path d=" M 135 27 L 135 477 L 105 477 L 105 57 L 45 57 L 45 27 L 135 27 Z " fill="rgb(243,245,249)"/><path d=" M 105 252 L 135 252 L 135 477 L 105 477 L 105 252 Z " fill="rgb(225,230,240)"/></g></svg>