<?xml version="1.0" encoding="UTF-8" standalone="no"?><!-- Generator: Gravit.io --><svg xmlns="http://www.w3.org/2000/svg" xmlns:xlink="http://www.w3.org/1999/xlink" style="isolation:isolate" viewBox="45 564 512 450" width="512pt" height="450pt"><g><path d=" M 196 924 L 526 924 L 526 1014 L 196 1014 L 196 924 Z " fill="rgb(255,159,64)"/><g><path d=" M 226 924 L 256 924 L 256 984 L 226 984 L 226 924 Z " fill="rgb(255,190,64)"/><path d=" M 286 924 L 316 924 L 316 984 L 286 984 L 286 924 Z " fill="rgb(255,190,64)"/><path d=" M 346 924 L 376 924 L 376 984 L 346 984 L 346 924 Z " fill="rgb(255,190,64)"/><path d=" M 406 924 L 436 924 L 436 984 L 406 984 L 406 924 Z " fill="rgb(255,190,64)"/><path d=" M 466 924 L 496 924 L 496 984 L 466 984 L 466 924 Z " fill="rgb(255,190,64)"/></g><path d=" M 120 624 L 557 624 L 557 954 L 120 954 L 120 624 Z " fill="rgb(221,0,49)"/><path d=" M 120 789 L 557 789 L 557 954 L 120 954 L 120 789 Z " fill="rgb(183,0,40)"/><path d=" M 45 654 L 120 654 L 120 774 L 45 774 L 45 654 Z " fill="rgb(255,190,64)"/><path d=" M 45 804 L 120 804 L 120 924 L 45 924 L 45 804 Z " fill="rgb(255,159,64)"/><path d=" M 75 684 L 120 684 L 120 744 L 75 744 L 75 684 Z " fill="rgb(255,223,64)"/><path d=" M 75 834 L 120 834 L 120 894 L 75 894 L 75 834 Z " fill="rgb(255,190,64)"/><path d=" M 166 684 L 196 684 L 196 714 L 166 714 L 166 684 Z " fill="rgb(53,61,77)"/><path d=" M 226 684 L 256 684 L 256 714 L 226 714 L 226 684 Z " fill="rgb(53,61,77)"/><path d=" M 166 744 L 196 744 L 196 774 L 166 774 L 166 744 Z " fill="rgb(53,61,77)"/><path d=" M 226 744 L 256 744 L 256 774 L 226 774 L 226 744 Z " fill="rgb(53,61,77)"/><path d=" M 166 804 L 196 804 L 196 834 L 166 834 L 166 804 Z " fill="rgb(30,37,51)"/><path d=" M 226 804 L 256 804 L 256 834 L 226 834 L 226 804 Z " fill="rgb(30,37,51)"/><path d=" M 166 864 L 196 864 L 196 894 L 166 894 L 166 864 Z " fill="rgb(30,37,51)"/><path d=" M 226 864 L 256 864 L 256 894 L 226 894 L 226 864 Z " fill="rgb(30,37,51)"/><circle vector-effect="non-scaling-stroke" cx="390.99999999999983" cy="788.9999999999999" r="105" fill="rgb(81,88,102)"/><path d=" M 391 894 C 448.891 894 496 846.891 496 789 L 286 789 C 286 846.891 333.109 894 391 894 Z " fill="rgb(53,61,77)"/><path d=" M 461.098 763.058 C 451.802 760.839 440.202 760.185 426.79 762.023 C 418.949 751.65 406.81 744.815 392.981 744.2 C 391.912 729.89 395.345 720.175 398.291 714.738 C 427.255 717.587 451.311 736.718 461.098 763.058 Z " fill="rgb(53,61,77)"/><path d=" M 365.017 718.913 C 362.796 728.213 362.148 739.813 364.006 753.223 C 353.64 761.065 346.812 773.202 346.199 787.026 C 331.875 788.106 322.166 784.673 316.735 781.721 C 319.582 752.765 338.696 728.711 365.017 718.913 L 365.017 718.913 Z " fill="rgb(53,61,77)"/><path d=" M 320.865 814.829 C 333.736 817.934 343.802 817.806 355.369 816.171 C 363.217 826.43 375.28 833.189 389.02 833.8 C 390.095 848.166 386.641 857.891 383.736 863.265 C 354.719 860.42 330.628 841.231 320.865 814.829 L 320.865 814.829 Z " fill="rgb(30,37,51)"/><path d=" M 416.983 859.087 C 419.204 849.787 419.852 838.187 417.994 824.777 C 428.356 816.938 435.182 804.802 435.799 790.987 C 450.125 789.916 459.833 793.334 465.264 796.279 C 462.42 825.235 443.304 849.289 416.983 859.087 L 416.983 859.087 Z " fill="rgb(30,37,51)"/><path d=" M 135 564 L 135 1014 L 105 1014 L 105 594 L 45 594 L 45 564 L 135 564 Z " fill="rgb(243,245,249)"/><path d=" M 105 789 L 135 789 L 135 1014 L 105 1014 L 105 789 Z " fill="rgb(225,230,240)"/></g></svg>