<?xml version="1.0" encoding="UTF-8" standalone="no"?><!-- Generator: Gravit.io --><svg xmlns="http://www.w3.org/2000/svg" xmlns:xlink="http://www.w3.org/1999/xlink" style="isolation:isolate" viewBox="640 564 512 450" width="512pt" height="450pt"><g><path d=" M 791 924 L 1121 924 L 1121 1014 L 791 1014 L 791 924 Z " fill="rgb(255,159,64)"/><g><path d=" M 821 924 L 851 924 L 851 984 L 821 984 L 821 924 Z " fill="rgb(255,190,64)"/><path d=" M 881 924 L 911 924 L 911 984 L 881 984 L 881 924 Z " fill="rgb(255,190,64)"/><path d=" M 941 924 L 971 924 L 971 984 L 941 984 L 941 924 Z " fill="rgb(255,190,64)"/><path d=" M 1001 924 L 1031 924 L 1031 984 L 1001 984 L 1001 924 Z " fill="rgb(255,190,64)"/><path d=" M 1061 924 L 1091 924 L 1091 984 L 1061 984 L 1061 924 Z " fill="rgb(255,190,64)"/></g><path d=" M 715 624 L 933.5 624 L 933.5 954 L 715 954 L 715 624 Z " fill="rgb(221,0,49)"/><path d=" M 933.5 624 L 1152 624 L 1152 954 L 933.5 954 L 933.5 624 Z " fill="rgb(118,185,0)"/><path d=" M 715 789 L 933.5 789 L 933.5 954 L 715 954 L 715 789 Z " fill="rgb(183,0,40)"/><path d=" M 933.5 789.229 L 1152 789.229 L 1152 954.229 L 933.5 954.229 L 933.5 789.229 Z " fill="rgb(97,153,0)"/><path d=" M 640 654 L 715 654 L 715 774 L 640 774 L 640 654 Z " fill="rgb(255,190,64)"/><path d=" M 640 804 L 715 804 L 715 924 L 640 924 L 640 804 Z " fill="rgb(255,159,64)"/><path d=" M 670 684 L 715 684 L 715 744 L 670 744 L 670 684 Z " fill="rgb(255,223,64)"/><path d=" M 670 834 L 715 834 L 715 894 L 670 894 L 670 834 Z " fill="rgb(255,190,64)"/><path d=" M 761 684 L 791 684 L 791 714 L 761 714 L 761 684 Z " fill="rgb(53,61,77)"/><path d=" M 821 684 L 851 684 L 851 714 L 821 714 L 821 684 Z " fill="rgb(53,61,77)"/><path d=" M 761 744 L 791 744 L 791 774 L 761 774 L 761 744 Z " fill="rgb(53,61,77)"/><path d=" M 821 744 L 851 744 L 851 774 L 821 774 L 821 744 Z " fill="rgb(53,61,77)"/><path d=" M 761 804 L 791 804 L 791 834 L 761 834 L 761 804 Z " fill="rgb(30,37,51)"/><path d=" M 821 804 L 851 804 L 851 834 L 821 834 L 821 804 Z " fill="rgb(30,37,51)"/><path d=" M 761 864 L 791 864 L 791 894 L 761 894 L 761 864 Z " fill="rgb(30,37,51)"/><path d=" M 821 864 L 851 864 L 851 894 L 821 894 L 821 864 Z " fill="rgb(30,37,51)"/><circle vector-effect="non-scaling-stroke" cx="985.9999999999998" cy="788.9999999999999" r="105" fill="rgb(81,88,102)"/><path d=" M 986 894 C 1043.891 894 1091 846.891 1091 789 L 881 789 C 881 846.891 928.109 894 986 894 Z " fill="rgb(53,61,77)"/><path d=" M 1056.098 763.058 C 1046.802 760.839 1035.202 760.185 1021.79 762.023 C 1013.949 751.65 1001.81 744.815 987.981 744.2 C 986.912 729.89 990.345 720.175 993.291 714.738 C 1022.255 717.587 1046.311 736.718 1056.098 763.058 Z " fill="rgb(53,61,77)"/><path d=" M 960.017 718.913 C 957.796 728.213 957.148 739.813 959.006 753.223 C 948.64 761.065 941.812 773.202 941.199 787.026 C 926.875 788.106 917.166 784.673 911.735 781.721 C 914.582 752.765 933.696 728.711 960.017 718.913 L 960.017 718.913 Z " fill="rgb(53,61,77)"/><path d=" M 915.865 814.829 C 928.736 817.934 938.802 817.806 950.369 816.171 C 958.217 826.43 970.28 833.189 984.02 833.8 C 985.095 848.166 981.641 857.891 978.736 863.265 C 949.719 860.42 925.628 841.231 915.865 814.829 L 915.865 814.829 Z " fill="rgb(30,37,51)"/><path d=" M 1011.983 859.087 C 1014.204 849.787 1014.852 838.187 1012.994 824.777 C 1023.356 816.938 1030.182 804.802 1030.799 790.987 C 1045.125 789.916 1054.833 793.334 1060.264 796.279 C 1057.42 825.235 1038.304 849.289 1011.983 859.087 L 1011.983 859.087 Z " fill="rgb(30,37,51)"/><path d=" M 730 564 L 730 1014 L 700 1014 L 700 594 L 640 594 L 640 564 L 730 564 Z " fill="rgb(243,245,249)"/><path d=" M 700 789 L 730 789 L 730 1014 L 700 1014 L 700 789 Z " fill="rgb(225,230,240)"/></g></svg>